# xmcd
#
# Track frame offsets:
#	150
#	27472
#	45047
#	58176
#	82758
#	93273
#	107350
#	126522
#	145404
#	159976
#	186948
#	212550
#	229079
#	245281
#	264411
#
# Disc length: 3678 seconds
#
# Revision: 1
# Processed by: cddbd v1.4PL0 Copyright (c) Steve Scherf et al.
# Submitted via: audiograbber 1.81.03
#
DISCID=be0e5c0f
DTITLE=Rock Bottom - Too Many Bad Habits
DYEAR=1985
DGENRE=Blues
TTITLE0=Lightin'
TTITLE1=Stompin' at the Aaheim
TTITLE2=Ramona's Blues
TTITLE3=Too Many Bad Habits
TTITLE4=Set the Meat Outdoors
TTITLE5=My Blues
TTITLE6=Who's Been Foolin' You
TTITLE7=Ice Cream Freezer
TTITLE8=Person to Person
TTITLE9=Blues for Anne B.
TTITLE10=My Mind is Ramblin'
TTITLE11=Snake Dancin' Through God's Barnyard
TTITLE12=Hadacol Bounce
TTITLE13=Boozoo Stomp
TTITLE14=Close To You Baby
EXTD=
EXTT0=
EXTT1=
EXTT2=
EXTT3=
EXTT4=
EXTT5=
EXTT6=
EXTT7=
EXTT8=
EXTT9=
EXTT10=
EXTT11=
EXTT12=
EXTT13=
EXTT14=
PLAYORDER=
